<svg xmlns="http://www.w3.org/2000/svg" viewBox="0 0 37.49 34.26"><defs><style>.cls-1{fill:#3c3c3a;}</style></defs><title>cactus-symbol</title><g id="Capa_2" data-name="Capa 2"><g id="Capa_1-2" data-name="Capa 1"><path class="cls-1" d="M25.92,30.11a11.13,11.13,0,0,0,7.62-3.54A10.79,10.79,0,0,0,36,22.29a16.77,16.77,0,0,0,.4-5.1c0-1.78,0-3.59-.09-5.38a3,3,0,0,0-5.89-.76,10.09,10.09,0,0,0-.09,2.46c0,.91,0,1.82,0,2.75s0,1.59,0,2.41a5.67,5.67,0,0,1-.14,1.53,5,5,0,0,1-2.85,3.31,4.32,4.32,0,0,1-4.6-1,5,5,0,0,1-1.3-2,8.61,8.61,0,0,1-.25-2.58c0-3.71,0-7.42,0-11.13V5.07a3.92,3.92,0,0,0-.09-1A2.7,2.7,0,0,0,18,2.1a2.66,2.66,0,0,0-2.18,2.74V8c0,3.65,0,7.34,0,11,0,1.81,0,3.62,0,5.44s0,3.62-.06,5.44a4.42,4.42,0,0,1-6.24,4,4.38,4.38,0,0,1-2.56-3.43c-.08-.82,0-1.7,0-2.52s0-1.84.06-2.75l.09-5.44a4.6,4.6,0,0,0-.35-2.26A3.16,3.16,0,0,0,5.05,16a3.39,3.39,0,0,0-3.51.7A3.17,3.17,0,0,0,.62,18.3a9.49,9.49,0,0,0-.15,2.07c0,1.95-.11,3.91-.2,5.86,0-1.05-.06-2.07-.11-3.11,0-.77-.06-1.53-.09-2.33a13.08,13.08,0,0,1,0-2.58A3.92,3.92,0,0,1,3.26,15.1a4.1,4.1,0,0,1,4.11,1.75A3.85,3.85,0,0,1,8,19c0,.9,0,1.78.05,2.69l.09,5.44c0,.88,0,1.75.06,2.6A2.9,2.9,0,0,0,13,32a2.85,2.85,0,0,0,1-1.9c0-.74,0-1.47,0-2.21,0-1.81,0-3.65,0-5.47,0-3.68-.06-7.36-.06-11V6A13.51,13.51,0,0,1,14,3.77,4.6,4.6,0,0,1,16.55.45a4.84,4.84,0,0,1,4.14,0,4.6,4.6,0,0,1,2.44,3.26,13.15,13.15,0,0,1,.06,2.66c0,3.71,0,7.42,0,11.13a7.23,7.23,0,0,0,.2,2.58,3.14,3.14,0,0,0,1.47,1.62,2.75,2.75,0,0,0,3.62-1.59,5.63,5.63,0,0,0,.26-2.41c0-.9,0-1.84,0-2.74s0-1.82,0-2.72a5.71,5.71,0,0,1,.43-2.33,4.45,4.45,0,0,1,3.54-2.43A4.32,4.32,0,0,1,36.5,9a3.86,3.86,0,0,1,.92,2,7.31,7.31,0,0,1,0,1.81c0,1.79-.08,3.57-.11,5.36A13.49,13.49,0,0,1,36.5,23a10.78,10.78,0,0,1-2.56,3.86,11.29,11.29,0,0,1-4,2.57A10.09,10.09,0,0,1,25.92,30.11Z"/></g></g></svg>