<svg xmlns="http://www.w3.org/2000/svg" viewBox="0 0 30.09 30.09"><defs><style>.cls-1{fill:#3c3c3a;}</style></defs><title>ig-symbol</title><g id="Capa_2" data-name="Capa 2"><g id="Capa_1-2" data-name="Capa 1"><path class="cls-1" d="M21.79,0H8.3A8.32,8.32,0,0,0,0,8.3V21.79a8.31,8.31,0,0,0,8.3,8.3H21.79a8.31,8.31,0,0,0,8.3-8.3V8.3A8.31,8.31,0,0,0,21.79,0Zm5.63,21.79a5.63,5.63,0,0,1-5.63,5.63H8.3a5.64,5.64,0,0,1-5.63-5.63V8.3A5.64,5.64,0,0,1,8.3,2.67H21.79A5.64,5.64,0,0,1,27.42,8.3V21.79Z"/><path class="cls-1" d="M15.05,7.29a7.76,7.76,0,1,0,7.75,7.76A7.77,7.77,0,0,0,15.05,7.29Zm0,12.84a5.09,5.09,0,1,1,5.08-5.08A5.09,5.09,0,0,1,15.05,20.13Z"/><path class="cls-1" d="M23.13,5a1.95,1.95,0,0,0-2,2,2,2,0,0,0,.57,1.38,2,2,0,0,0,1.39.57,2,2,0,0,0,1.38-.57A1.94,1.94,0,0,0,25.08,7a1.95,1.95,0,0,0-1.95-2Z"/></g></g></svg>