<svg xmlns="http://www.w3.org/2000/svg" viewBox="0 0 29.37 28.06"><defs><style>.cls-1{fill:#3c3c3a;}</style></defs><title>linkedin-symbol</title><g id="Capa_2" data-name="Capa 2"><g id="Capa_1-2" data-name="Capa 1"><path id="LinkedIn" class="cls-1" d="M29.37,17.2V28.06h-6.3V17.93c0-2.54-.91-4.28-3.19-4.28A3.45,3.45,0,0,0,16.65,16a4.5,4.5,0,0,0-.2,1.54V28.06h-6.3s.08-17.15,0-18.93h6.3v2.68l-.05.06h.05v-.06a6.24,6.24,0,0,1,5.67-3.13C26.26,8.68,29.37,11.39,29.37,17.2ZM3.56,0a3.28,3.28,0,1,0-.08,6.54h0A3.28,3.28,0,1,0,3.56,0ZM.37,28.06h6.3V9.13H.37Z"/></g></g></svg>