<svg xmlns="http://www.w3.org/2000/svg" viewBox="0 0 31.06 25.23"><defs><style>.cls-1{fill:#3c3c3a;}</style></defs><title>twitter-symbol</title><g id="Capa_2" data-name="Capa 2"><g id="Capa_1-2" data-name="Capa 1"><path class="cls-1" d="M31.06,3a12.82,12.82,0,0,1-3.65,1A6.45,6.45,0,0,0,30.21.47,12.73,12.73,0,0,1,26.16,2a6.38,6.38,0,0,0-11,4.36,6.26,6.26,0,0,0,.17,1.45A18.07,18.07,0,0,1,2.16,1.16,6.44,6.44,0,0,0,1.3,4.37a6.36,6.36,0,0,0,2.84,5.3,6.28,6.28,0,0,1-2.89-.8V9A6.38,6.38,0,0,0,6.36,15.2a6.61,6.61,0,0,1-1.68.22,6,6,0,0,1-1.2-.12,6.37,6.37,0,0,0,5.95,4.43,12.75,12.75,0,0,1-7.91,2.72c-.51,0-1,0-1.52-.08a18,18,0,0,0,9.77,2.86c11.72,0,18.13-9.71,18.13-18.13l0-.82A12.91,12.91,0,0,0,31.06,3Z"/></g></g></svg>