<?xml version="1.0" encoding="utf-8"?>
<!-- Generator: Adobe Illustrator 21.1.0, SVG Export Plug-In . SVG Version: 6.00 Build 0)  -->
<svg version="1.1" id="Capa_1" xmlns="http://www.w3.org/2000/svg" xmlns:xlink="http://www.w3.org/1999/xlink" x="0px" y="0px"
	 viewBox="0 0 384 120.9" style="enable-background:new 0 0 384 120.9;" xml:space="preserve">
<style type="text/css">
	.st0{fill:#3C3C3A;}
</style>
<g>
	<g>
		<path class="st0" d="M174.3,58.9c0,8.2,3.4,12.3,10.3,12.3c1.2,0,2.4-0.1,3.5-0.3c1.1-0.2,2.4-0.6,4-1.2c1.3,2.8,2.1,5.6,2.6,8.6
			c-1.1,0.4-2.2,0.8-3.1,1c-1,0.3-1.9,0.5-2.8,0.6c-0.9,0.1-1.8,0.2-2.6,0.3c-0.9,0.1-1.8,0.1-2.7,0.1c-3.3,0-6.2-0.5-8.7-1.6
			c-2.5-1.1-4.6-2.5-6.3-4.4c-1.7-1.9-2.9-4.2-3.8-6.8c-0.9-2.6-1.3-5.5-1.3-8.6c0-3.1,0.4-6,1.3-8.6c0.9-2.6,2.2-4.9,3.9-6.9
			c1.7-1.9,3.8-3.4,6.2-4.5c2.5-1.1,5.3-1.6,8.4-1.6c1.9,0,3.6,0.1,5.3,0.4c1.7,0.3,3.5,0.8,5.6,1.6c-0.1,1.6-0.4,3.1-0.9,4.6
			c-0.5,1.5-1,2.8-1.6,3.9c-0.8-0.3-1.5-0.5-2.1-0.7c-0.6-0.2-1.2-0.3-1.8-0.5s-1.2-0.2-1.7-0.3c-0.6-0.1-1.2-0.1-1.9-0.1
			c-3.1,0-5.6,1.1-7.3,3.2C175.1,51.6,174.3,54.7,174.3,58.9z"/>
		<path class="st0" d="M209.6,79.5c-0.9,0.2-1.7,0.3-2.4,0.3c-0.7,0.1-1.4,0.1-2.1,0.1c-0.7,0-1.5,0-2.4-0.1c-0.9-0.1-1.9-0.2-3-0.4
			l13-41.4c1-0.1,1.9-0.2,2.8-0.3c0.9-0.1,1.7-0.1,2.6-0.1c0.7,0,1.5,0,2.4,0.1c0.9,0.1,1.9,0.2,3,0.3l12.8,41.5
			c-2.2,0.3-4.1,0.5-5.8,0.5c-0.8,0-1.5,0-2.3-0.1c-0.8-0.1-1.6-0.2-2.5-0.3l-2.2-8.1c-1.1,0.3-2.1,0.5-3.1,0.7
			c-1,0.2-2,0.2-2.9,0.2c-0.9,0-1.8-0.1-2.7-0.2c-0.9-0.1-1.9-0.3-2.9-0.6L209.6,79.5z M217.7,48.9l-3.9,14.9
			c0.7,0.2,1.3,0.3,1.9,0.5c0.6,0.1,1.2,0.2,1.8,0.2c0.7,0,1.3,0,1.9-0.1c0.6-0.1,1.3-0.2,2-0.4L217.7,48.9z"/>
		<path class="st0" d="M251.2,58.9c0,8.2,3.4,12.3,10.3,12.3c1.2,0,2.4-0.1,3.5-0.3c1.1-0.2,2.4-0.6,4-1.2c1.3,2.8,2.1,5.6,2.6,8.6
			c-1.1,0.4-2.2,0.8-3.1,1c-1,0.3-1.9,0.5-2.8,0.6c-0.9,0.1-1.8,0.2-2.6,0.3c-0.9,0.1-1.8,0.1-2.7,0.1c-3.3,0-6.2-0.5-8.7-1.6
			c-2.5-1.1-4.6-2.5-6.3-4.4c-1.7-1.9-2.9-4.2-3.8-6.8c-0.9-2.6-1.3-5.5-1.3-8.6c0-3.1,0.4-6,1.3-8.6c0.9-2.6,2.2-4.9,3.9-6.9
			c1.7-1.9,3.8-3.4,6.2-4.5c2.5-1.1,5.3-1.6,8.4-1.6c1.9,0,3.6,0.1,5.3,0.4c1.7,0.3,3.5,0.8,5.6,1.6c-0.1,1.6-0.4,3.1-0.9,4.6
			c-0.5,1.5-1,2.8-1.6,3.9c-0.8-0.3-1.5-0.5-2.1-0.7c-0.6-0.2-1.2-0.3-1.8-0.5c-0.6-0.1-1.2-0.2-1.7-0.3c-0.6-0.1-1.2-0.1-1.9-0.1
			c-3.1,0-5.6,1.1-7.3,3.2C252,51.6,251.2,54.7,251.2,58.9z"/>
		<path class="st0" d="M287.3,47h-9.7c-0.3-1.7-0.5-3.2-0.5-4.6c0-1.3,0.2-2.8,0.5-4.5h29.6c0.2,0.9,0.3,1.6,0.3,2.4
			c0.1,0.7,0.1,1.4,0.1,2.1c0,1.3-0.2,2.8-0.5,4.6h-9.7v32.5c-2,0.3-3.8,0.5-5.1,0.5c-1.4,0-3.2-0.2-5.2-0.5V47z"/>
		<path class="st0" d="M330.6,80.3c-3.1,0-5.7-0.4-7.8-1.3c-2.1-0.9-3.7-2.1-4.9-3.7c-1.2-1.6-2-3.5-2.5-5.8
			c-0.5-2.3-0.7-4.9-0.7-7.7V38.1c1.1-0.2,2.1-0.3,2.9-0.3c0.8-0.1,1.6-0.1,2.3-0.1c0.7,0,1.4,0,2.2,0.1c0.8,0.1,1.7,0.2,2.9,0.3
			v22.5c0,1.9,0.1,3.6,0.2,4.9c0.2,1.4,0.4,2.5,0.8,3.3c0.4,0.9,1,1.5,1.7,1.8c0.7,0.4,1.7,0.6,2.9,0.6c1.2,0,2.2-0.2,2.9-0.6
			c0.8-0.4,1.3-1,1.7-1.8c0.4-0.8,0.7-2,0.8-3.3s0.2-3,0.2-4.9V38.1c1.2-0.2,2.1-0.3,2.9-0.3c0.8-0.1,1.5-0.1,2.2-0.1
			c0.7,0,1.4,0,2.3,0.1c0.8,0.1,1.8,0.2,2.9,0.3v23.7c0,2.9-0.2,5.4-0.7,7.7c-0.5,2.3-1.3,4.2-2.5,5.8c-1.2,1.6-2.8,2.8-4.9,3.7
			C336.4,79.9,333.8,80.3,330.6,80.3z"/>
		<path class="st0" d="M372.5,54.2c1.6,0.7,3.1,1.3,4.4,2c1.3,0.7,2.4,1.5,3.3,2.4c0.9,0.9,1.6,2.1,2.1,3.4c0.5,1.3,0.8,2.9,0.8,4.8
			c0,2-0.4,3.9-1.1,5.5c-0.7,1.6-1.8,3.1-3.2,4.2c-1.4,1.2-3.1,2.1-5.1,2.7c-2,0.6-4.4,1-7,1c-2.4,0-4.5-0.2-6.4-0.6
			c-1.8-0.4-3.8-1-5.9-1.8c0.2-1.4,0.4-2.8,0.8-4.3c0.4-1.5,0.8-3.1,1.4-4.7c3.6,1.5,6.7,2.3,9.3,2.3c2,0,3.5-0.3,4.6-0.9
			c1.1-0.6,1.7-1.6,1.7-3.1c0-0.6-0.1-1.1-0.3-1.6c-0.2-0.4-0.5-0.8-0.9-1.1c-0.4-0.3-0.8-0.6-1.3-0.8c-0.5-0.2-1-0.4-1.5-0.6
			l-3.2-1.2c-1.4-0.5-2.7-1.1-3.8-1.8c-1.1-0.7-2.1-1.5-2.9-2.5c-0.8-0.9-1.4-2-1.9-3.3c-0.4-1.2-0.7-2.7-0.7-4.4c0-2,0.3-3.9,1-5.5
			c0.7-1.6,1.7-2.9,2.9-4c1.3-1.1,2.8-1.9,4.6-2.5c1.8-0.6,3.8-0.8,6-0.8c2,0,3.9,0.2,5.7,0.6c1.8,0.4,3.8,0.9,5.9,1.7
			c-0.2,1.2-0.4,2.6-0.8,4.1c-0.4,1.5-0.9,2.9-1.5,4.2c-1-0.4-2.2-0.9-3.5-1.3c-1.4-0.5-3-0.7-5-0.7c-0.6,0-1.2,0.1-1.8,0.2
			c-0.6,0.1-1.1,0.3-1.5,0.6c-0.4,0.3-0.8,0.6-1.1,1c-0.3,0.4-0.4,1-0.4,1.7c0,1.1,0.4,2,1.1,2.5c0.7,0.5,1.6,1,2.6,1.4L372.5,54.2z
			"/>
	</g>
	<path class="st0" d="M89.1,106.2c10.2-0.6,19.6-4.9,26.5-12.5c3.9-4.3,6.8-9.5,8.4-15.1c1.7-5.9,1.5-11.9,1.4-18
		c-0.1-6.3-0.1-12.7-0.3-19c-0.2-5.4-4.5-9.9-9.9-10.2c-4.8-0.3-9.3,2.9-10.6,7.5c-0.7,2.7-0.3,5.9-0.3,8.7c0,3.2,0.1,6.4,0.1,9.7
		c0,2.8,0.1,5.6,0.1,8.5c0,1.8,0,3.6-0.5,5.4c-1.3,5.1-5,9.7-9.9,11.7c-5.6,2.3-11.8,0.7-16-3.4c-2.1-2-3.6-4.5-4.5-7.2
		c-1-3-0.8-6-0.9-9.1c-0.1-13.1-0.1-26.2-0.1-39.3c0-2,0-4.1,0-6.1c0-1.2,0-2.4-0.3-3.6c-1.1-4.7-6.1-7.8-10.7-6.9
		c-4.8,0.8-7.6,5.1-7.6,9.7c0,3.7,0,7.4,0,11.1C54.1,41,54.1,54,54,67c-0.1,6.4-0.1,12.8-0.1,19.2c0,6.4,0,12.8-0.2,19.2
		c-0.2,4.9-2.3,9.5-6.2,12.4c-4.4,3.3-10.5,4-15.5,1.7c-4.8-2.2-8.3-6.8-8.9-12.1c-0.3-2.9,0-6,0-8.9c0.1-3.2,0.1-6.5,0.2-9.7
		c0.1-6.4,0.2-12.8,0.3-19.2c0-2.8,0.1-5.4-1.2-8c-1.3-2.4-3.4-4.3-5.9-5.2c-4.2-1.6-9-0.6-12.2,2.5c-1.6,1.5-2.7,3.5-3.2,5.6
		c-0.6,2.3-0.4,4.9-0.5,7.3c-0.2,6.9-0.4,13.8-0.7,20.7c-0.1-3.7-0.2-7.3-0.4-11c-0.1-2.7-0.2-5.4-0.3-8.2c-0.1-3-0.5-6.1,0-9.1
		c1-5.6,5.5-10,11.1-11c5.5-1,11.3,1.5,14.3,6.2c1.5,2.3,2.3,4.9,2.3,7.6c0.1,3.2,0.1,6.3,0.2,9.5c0.1,6.4,0.2,12.8,0.3,19.2
		c0.1,3.1,0.1,6.2,0.2,9.2c0,2.7,0.8,5.2,2.6,7.2c3.6,4,10,4.5,14.1,0.9c1.9-1.7,3.2-4.1,3.4-6.7c0.1-2.6,0-5.2,0-7.8
		c0-6.4-0.1-12.9-0.1-19.3c-0.1-13-0.2-26-0.2-39c0-6.4,0-12.8,0-19.2c0-2.6-0.2-5.3,0.2-7.8c0.9-5.1,4.3-9.5,8.9-11.7
		c4.5-2.2,9.9-2.1,14.4,0.1c4.4,2.3,7.7,6.6,8.5,11.5c0.5,3.1,0.3,6.3,0.2,9.4c0,13.1,0,26.2-0.1,39.3c0,3-0.4,6.2,0.7,9.1
		c1,2.4,2.7,4.5,5.1,5.7c5,2.5,10.5-0.8,12.6-5.6c1.2-2.7,0.9-5.7,0.9-8.5c0-3.2,0.1-6.5,0.1-9.7c0-3.2,0.1-6.4,0.1-9.6
		c0.1-2.9,0.3-5.6,1.5-8.2c2.3-4.7,7-8.1,12.3-8.6c5-0.5,9.9,1.5,13.1,5.4c1.7,2,2.8,4.4,3.2,7c0.4,2.1,0.2,4.3,0.1,6.4
		c-0.1,6.3-0.3,12.6-0.4,18.9c-0.1,5.8-0.8,11.4-2.9,16.9c-2,5.1-5,9.8-8.9,13.6c-4,4-8.7,7.1-14,9.1
		C98.6,105.6,93.9,106.2,89.1,106.2z"/>
</g>
<path d="M169.1,446.9c10.2-0.6,19.6-4.9,26.5-12.5c3.9-4.3,6.8-9.5,8.4-15.1c1.7-5.9,1.5-11.9,1.4-18c-0.1-6.3-0.1-12.7-0.3-19
	c-0.2-5.4-4.5-9.9-9.9-10.2c-4.8-0.3-9.3,2.9-10.6,7.5c-0.7,2.7-0.3,5.9-0.3,8.7c0,3.2,0.1,6.4,0.1,9.7c0,2.8,0.1,5.6,0.1,8.5
	c0,1.8,0,3.6-0.5,5.4c-1.3,5.1-5,9.7-9.9,11.7c-5.6,2.3-11.8,0.7-16-3.4c-2.1-2-3.6-4.5-4.5-7.2c-1-3-0.8-6-0.9-9.1
	c-0.1-13.1-0.1-26.2-0.1-39.3c0-2,0-4.1,0-6.1c0-1.2,0-2.4-0.3-3.6c-1.1-4.7-6.1-7.8-10.7-6.9c-4.8,0.8-7.6,5.1-7.6,9.7
	c0,3.7,0,7.4,0,11.1c0,13-0.1,26.1-0.2,39.1c-0.1,6.4-0.1,12.8-0.1,19.2c0,6.4,0,12.8-0.2,19.2c-0.2,4.9-2.3,9.5-6.2,12.4
	c-4.4,3.3-10.5,4-15.5,1.7c-4.8-2.2-8.3-6.8-8.9-12.1c-0.3-2.9,0-6,0-8.9c0.1-3.2,0.1-6.5,0.2-9.7c0.1-6.4,0.2-12.8,0.3-19.2
	c0-2.8,0.1-5.4-1.2-8c-1.3-2.4-3.4-4.3-5.9-5.2c-4.2-1.6-9-0.6-12.2,2.5c-1.6,1.5-2.7,3.5-3.2,5.6c-0.6,2.3-0.4,4.9-0.5,7.3
	c-0.2,6.9-0.4,13.8-0.7,20.7c-0.1-3.7-0.2-7.3-0.4-11c-0.1-2.7-0.2-5.4-0.3-8.2c-0.1-3-0.5-6.1,0-9.1c1-5.6,5.5-10,11.1-11
	c5.5-1,11.3,1.5,14.3,6.2c1.5,2.3,2.3,4.9,2.3,7.6c0.1,3.2,0.1,6.3,0.2,9.5c0.1,6.4,0.2,12.8,0.3,19.2c0.1,3.1,0.1,6.2,0.2,9.2
	c0,2.7,0.8,5.2,2.6,7.2c3.6,4,10,4.5,14.1,0.9c1.9-1.7,3.2-4.1,3.4-6.7c0.1-2.6,0-5.2,0-7.8c0-6.4-0.1-12.9-0.1-19.3
	c-0.1-13-0.2-26-0.2-39c0-6.4,0-12.8,0-19.2c0-2.6-0.2-5.3,0.2-7.8c0.9-5.1,4.3-9.5,8.9-11.7c4.5-2.2,9.9-2.1,14.4,0.1
	c4.4,2.3,7.7,6.6,8.5,11.5c0.5,3.1,0.3,6.3,0.2,9.4c0,13.1,0,26.2-0.1,39.3c0,3-0.4,6.2,0.7,9.1c1,2.4,2.7,4.5,5.1,5.7
	c5,2.5,10.5-0.8,12.6-5.6c1.2-2.7,0.9-5.7,0.9-8.5c0-3.2,0.1-6.5,0.1-9.7c0-3.2,0.1-6.4,0.1-9.6c0.1-2.9,0.3-5.6,1.5-8.2
	c2.3-4.7,7-8.1,12.3-8.6c5-0.5,9.9,1.5,13.1,5.4c1.7,2,2.8,4.4,3.2,7c0.4,2.1,0.2,4.3,0.1,6.4c-0.1,6.3-0.3,12.6-0.4,18.9
	c-0.1,5.8-0.8,11.4-2.9,16.9c-2,5.1-5,9.8-8.9,13.6c-4,4-8.7,7.1-14,9.1C178.6,446.2,173.9,446.9,169.1,446.9z"/>
<g>
	<g>
		<path d="M254.3,412.2c0,8.2,3.4,12.3,10.3,12.3c1.2,0,2.4-0.1,3.5-0.3c1.1-0.2,2.4-0.6,4-1.2c1.3,2.8,2.1,5.6,2.6,8.6
			c-1.1,0.4-2.2,0.8-3.1,1c-1,0.3-1.9,0.5-2.8,0.6c-0.9,0.1-1.8,0.2-2.6,0.3c-0.9,0.1-1.8,0.1-2.7,0.1c-3.3,0-6.2-0.5-8.7-1.6
			c-2.5-1.1-4.6-2.5-6.3-4.4c-1.7-1.9-2.9-4.2-3.8-6.8c-0.9-2.6-1.3-5.5-1.3-8.6c0-3.1,0.4-6,1.3-8.6c0.9-2.6,2.2-4.9,3.9-6.9
			c1.7-1.9,3.8-3.4,6.2-4.5c2.5-1.1,5.3-1.6,8.4-1.6c1.9,0,3.6,0.1,5.3,0.4c1.7,0.3,3.5,0.8,5.6,1.6c-0.1,1.6-0.4,3.1-0.9,4.6
			c-0.5,1.5-1,2.8-1.6,3.9c-0.8-0.3-1.5-0.5-2.1-0.7c-0.6-0.2-1.2-0.3-1.8-0.5c-0.6-0.1-1.2-0.2-1.7-0.3c-0.6-0.1-1.2-0.1-1.9-0.1
			c-3.1,0-5.6,1.1-7.3,3.2C255.1,404.9,254.3,408,254.3,412.2z"/>
		<path d="M289.6,432.8c-0.9,0.2-1.7,0.3-2.4,0.3c-0.7,0.1-1.4,0.1-2.1,0.1s-1.5,0-2.4-0.1c-0.9-0.1-1.9-0.2-3-0.4l13-41.4
			c1-0.1,1.9-0.2,2.8-0.3c0.9-0.1,1.7-0.1,2.6-0.1c0.7,0,1.5,0,2.4,0.1c0.9,0.1,1.9,0.2,3,0.3l12.8,41.5c-2.2,0.3-4.1,0.5-5.8,0.5
			c-0.8,0-1.5,0-2.3-0.1c-0.8-0.1-1.6-0.2-2.5-0.3l-2.2-8.1c-1.1,0.3-2.1,0.5-3.1,0.7c-1,0.2-2,0.2-2.9,0.2c-0.9,0-1.8-0.1-2.7-0.2
			c-0.9-0.1-1.9-0.3-2.9-0.6L289.6,432.8z M297.7,402.2l-3.9,14.9c0.7,0.2,1.3,0.3,1.9,0.5c0.6,0.1,1.2,0.2,1.8,0.2
			c0.7,0,1.3,0,1.9-0.1c0.6-0.1,1.3-0.2,2-0.4L297.7,402.2z"/>
		<path d="M331.2,412.2c0,8.2,3.4,12.3,10.3,12.3c1.2,0,2.4-0.1,3.5-0.3c1.1-0.2,2.4-0.6,4-1.2c1.3,2.8,2.1,5.6,2.6,8.6
			c-1.1,0.4-2.2,0.8-3.1,1c-1,0.3-1.9,0.5-2.8,0.6c-0.9,0.1-1.8,0.2-2.6,0.3c-0.9,0.1-1.8,0.1-2.7,0.1c-3.3,0-6.2-0.5-8.7-1.6
			c-2.5-1.1-4.6-2.5-6.3-4.4c-1.7-1.9-2.9-4.2-3.8-6.8c-0.9-2.6-1.3-5.5-1.3-8.6c0-3.1,0.4-6,1.3-8.6c0.9-2.6,2.2-4.9,3.9-6.9
			c1.7-1.9,3.8-3.4,6.2-4.5c2.5-1.1,5.3-1.6,8.4-1.6c1.9,0,3.6,0.1,5.3,0.4c1.7,0.3,3.5,0.8,5.6,1.6c-0.1,1.6-0.4,3.1-0.9,4.6
			c-0.5,1.5-1,2.8-1.6,3.9c-0.8-0.3-1.5-0.5-2.1-0.7c-0.6-0.2-1.2-0.3-1.8-0.5c-0.6-0.1-1.2-0.2-1.7-0.3c-0.6-0.1-1.2-0.1-1.9-0.1
			c-3.1,0-5.6,1.1-7.3,3.2S331.2,408,331.2,412.2z"/>
		<path d="M367.3,400.3h-9.7c-0.3-1.7-0.5-3.2-0.5-4.6c0-1.3,0.2-2.8,0.5-4.5h29.6c0.2,0.9,0.3,1.6,0.3,2.4c0.1,0.7,0.1,1.4,0.1,2.1
			c0,1.3-0.2,2.8-0.5,4.6h-9.7v32.5c-2,0.3-3.8,0.5-5.1,0.5c-1.4,0-3.2-0.2-5.2-0.5V400.3z"/>
		<path d="M410.6,433.6c-3.1,0-5.7-0.4-7.8-1.3c-2.1-0.9-3.7-2.1-4.9-3.7c-1.2-1.6-2-3.5-2.5-5.8c-0.5-2.3-0.7-4.9-0.7-7.7v-23.7
			c1.1-0.2,2.1-0.3,2.9-0.3c0.8-0.1,1.6-0.1,2.3-0.1c0.7,0,1.4,0,2.2,0.1c0.8,0.1,1.7,0.2,2.9,0.3v22.5c0,1.9,0.1,3.6,0.2,4.9
			c0.2,1.4,0.4,2.5,0.8,3.3c0.4,0.9,1,1.5,1.7,1.8c0.7,0.4,1.7,0.6,2.9,0.6c1.2,0,2.2-0.2,2.9-0.6c0.8-0.4,1.3-1,1.7-1.8
			c0.4-0.8,0.7-2,0.8-3.3c0.1-1.4,0.2-3,0.2-4.9v-22.5c1.2-0.2,2.1-0.3,2.9-0.3c0.8-0.1,1.5-0.1,2.2-0.1c0.7,0,1.4,0,2.3,0.1
			c0.8,0.1,1.8,0.2,2.9,0.3v23.7c0,2.9-0.2,5.4-0.7,7.7c-0.5,2.3-1.3,4.2-2.5,5.8c-1.2,1.6-2.8,2.8-4.9,3.7
			C416.4,433.2,413.8,433.6,410.6,433.6z"/>
		<path d="M452.5,407.5c1.6,0.7,3.1,1.3,4.4,2c1.3,0.7,2.4,1.5,3.3,2.4c0.9,0.9,1.6,2.1,2.1,3.4c0.5,1.3,0.8,2.9,0.8,4.8
			c0,2-0.4,3.9-1.1,5.5c-0.7,1.6-1.8,3.1-3.2,4.2c-1.4,1.2-3.1,2.1-5.1,2.7c-2,0.6-4.4,1-7,1c-2.4,0-4.5-0.2-6.4-0.6
			c-1.8-0.4-3.8-1-5.9-1.8c0.2-1.4,0.4-2.8,0.8-4.3c0.4-1.5,0.8-3.1,1.4-4.7c3.6,1.5,6.7,2.3,9.3,2.3c2,0,3.5-0.3,4.6-0.9
			c1.1-0.6,1.7-1.6,1.7-3.1c0-0.6-0.1-1.1-0.3-1.6c-0.2-0.4-0.5-0.8-0.9-1.1c-0.4-0.3-0.8-0.6-1.3-0.8s-1-0.4-1.5-0.6l-3.2-1.2
			c-1.4-0.5-2.7-1.1-3.8-1.8c-1.1-0.7-2.1-1.5-2.9-2.5c-0.8-0.9-1.4-2-1.9-3.3c-0.4-1.2-0.7-2.7-0.7-4.4c0-2,0.3-3.9,1-5.5
			c0.7-1.6,1.7-2.9,2.9-4c1.3-1.1,2.8-1.9,4.6-2.5c1.8-0.6,3.8-0.8,6-0.8c2,0,3.9,0.2,5.7,0.6c1.8,0.4,3.8,0.9,5.9,1.7
			c-0.2,1.2-0.4,2.6-0.8,4.1c-0.4,1.5-0.9,2.9-1.5,4.2c-1-0.4-2.2-0.9-3.5-1.3c-1.4-0.5-3-0.7-5-0.7c-0.6,0-1.2,0.1-1.8,0.2
			c-0.6,0.1-1.1,0.3-1.5,0.6c-0.4,0.3-0.8,0.6-1.1,1c-0.3,0.4-0.4,1-0.4,1.7c0,1.1,0.4,2,1.1,2.5c0.7,0.5,1.6,1,2.6,1.4L452.5,407.5
			z"/>
	</g>
	<g>
		<path d="M260.5,368.9c0.4-0.1,0.7-0.1,0.9-0.1c0.3,0,0.5,0,0.8,0c0.3,0,0.6,0,0.9,0s0.7,0.1,1.1,0.1l-3.7,15.3
			c-0.2,0-0.5,0.1-0.8,0.1s-0.7,0.1-1.1,0.1c-0.4,0-0.8,0-1.2-0.1c-0.4-0.1-0.6-0.1-0.8-0.1l-2-8.9l-2.2,8.9c-0.1,0-0.4,0.1-0.7,0.1
			c-0.4,0-0.7,0.1-1.1,0.1s-0.8,0-1.1-0.1c-0.3,0-0.6-0.1-0.8-0.1l-3.6-15.3c0.4-0.1,0.8-0.1,1.2-0.1s0.7,0,1,0c0.3,0,0.6,0,0.8,0
			s0.6,0.1,1,0.1l1.8,9.8c0.4-1.6,0.7-3.2,1.1-4.9c0.4-1.7,0.7-3.3,1.1-4.9c0.3,0,0.5-0.1,0.9-0.1c0.3,0,0.6-0.1,1-0.1
			c0.3,0,0.6,0,0.9,0.1c0.3,0,0.6,0.1,0.8,0.1l2.2,9.9L260.5,368.9z"/>
		<path d="M274.7,376.2c0,0.5-0.1,1.1-0.2,1.7h-4.1v3h5.4c0.1,0.6,0.2,1.1,0.2,1.6c0,0.5-0.1,1.1-0.2,1.7h-9.2v-15.4h9
			c0.1,0.3,0.1,0.6,0.1,0.9c0,0.3,0,0.5,0,0.8c0,0.5-0.1,1-0.2,1.7h-5.3v2.4h4.1C274.7,375.2,274.7,375.8,274.7,376.2z"/>
		<path d="M287.3,384.2c-0.3,0.1-0.6,0.1-0.9,0.1c-0.3,0-0.5,0-0.8,0c-0.3,0-0.6,0-0.9-0.1c-0.3,0-0.7-0.1-1.1-0.2l4.8-15.3
			c0.4,0,0.7-0.1,1-0.1c0.3,0,0.6,0,1,0c0.3,0,0.6,0,0.9,0s0.7,0.1,1.1,0.1l4.7,15.3c-0.8,0.1-1.5,0.2-2.1,0.2c-0.3,0-0.6,0-0.9,0
			c-0.3,0-0.6-0.1-0.9-0.1l-0.8-3c-0.4,0.1-0.8,0.2-1.1,0.3c-0.4,0.1-0.7,0.1-1.1,0.1c-0.3,0-0.7,0-1-0.1c-0.3,0-0.7-0.1-1.1-0.2
			L287.3,384.2z M290.3,372.9l-1.4,5.5c0.2,0.1,0.5,0.1,0.7,0.2c0.2,0,0.4,0.1,0.7,0.1c0.2,0,0.5,0,0.7-0.1c0.2,0,0.5-0.1,0.7-0.2
			L290.3,372.9z"/>
		<path d="M299.6,368.9c0.7-0.1,1.3-0.1,1.9-0.2c0.6-0.1,1.2-0.1,1.9-0.1c0.8,0,1.6,0.1,2.4,0.2c0.8,0.1,1.5,0.4,2.1,0.8
			s1.1,0.9,1.5,1.5c0.4,0.6,0.6,1.5,0.6,2.4c0,0.5-0.1,1-0.2,1.4c-0.1,0.4-0.3,0.8-0.5,1.1c-0.2,0.3-0.4,0.6-0.6,0.9
			c-0.2,0.2-0.5,0.5-0.7,0.6l3.3,6.6c-0.3,0.1-0.7,0.1-1.1,0.1c-0.4,0-0.8,0-1.1,0c-0.3,0-0.6,0-1,0c-0.4,0-0.7-0.1-1-0.1l-3-7
			l0.2-0.1c0.2-0.1,0.4-0.2,0.6-0.4s0.4-0.4,0.6-0.7c0.2-0.3,0.3-0.6,0.5-0.9c0.1-0.3,0.2-0.7,0.2-1.1c0-0.7-0.2-1.2-0.6-1.6
			c-0.4-0.3-0.9-0.5-1.5-0.5c-0.1,0-0.3,0-0.4,0c-0.1,0-0.2,0-0.2,0v12.3c-0.8,0.1-1.4,0.2-1.9,0.2c-0.5,0-1.2-0.1-1.9-0.2V368.9z"
			/>
		<path d="M322,376.2c0,0.5-0.1,1.1-0.2,1.7h-4.1v3h5.4c0.1,0.6,0.2,1.1,0.2,1.6c0,0.5-0.1,1.1-0.2,1.7h-9.2v-15.4h9
			c0.1,0.3,0.1,0.6,0.1,0.9c0,0.3,0,0.5,0,0.8c0,0.5-0.1,1-0.2,1.7h-5.3v2.4h4.1C321.9,375.2,322,375.8,322,376.2z"/>
	</g>
</g>
</svg>
